<?xml version="1.0" encoding="UTF-8" standalone="no"?>
<svg width="354px" height="468px" viewBox="0 0 354 468" version="1.1" xmlns="http://www.w3.org/2000/svg" xmlns:xlink="http://www.w3.org/1999/xlink">
    <!-- Generator: Sketch 3.8.3 (29802) - http://www.bohemiancoding.com/sketch -->
    <title>Slice 1</title>
    <desc>Created with Sketch.</desc>
    <defs></defs>
    <g id="Page-1" stroke="none" stroke-width="1" fill="none" fill-rule="evenodd">
        <g id="Group-12" transform="translate(1.000000, 0.000000)">
            <path d="M158.042485,451.099996 C157.418509,432.81864 163.711968,423.37897 174.010583,423.011022 C184.309198,422.643073 194.713089,431.486181 195.337065,449.767537 C195.961041,468.048893 187.575663,467.27185 177.277048,467.639798 C166.978434,468.007747 158.666461,469.381352 158.042485,451.099996" id="Oval-2" fill="#404040"></path>
            <path d="M87.1052083,435.8988 C93.2202636,418.709473 102.51173,412.36923 112.195161,415.975178 C121.878592,419.581126 128.287067,431.767766 122.172012,448.957092 C116.056957,466.146418 108.566678,462.21213 98.8832474,458.606182 C89.1998164,455.000234 80.990153,453.088126 87.1052083,435.8988" id="Oval-2" fill="#404040"></path>
            <g id="Group-7">
                <g id="Group-6">
                    <g id="Group-5" transform="translate(0.000000, 349.944970)">
                        <path d="M29.8187702,27.8161387 C38.9241851,40.7034786 52.6804456,53.3592741 68.6958011,51.9328657 C87.2346858,50.281699 117.841272,39.7098723 107.572831,33.3400149" id="Path-1" stroke="#919192" stroke-width="4"></path>
                        <path d="M23.8181072,39.2345831 C25.6695884,38.4040805 26.9523369,36.7624159 27.7538615,34.5264352 C28.6434759,32.7970324 29.3951518,30.7314742 30.0162303,28.4135778 C34.2762052,12.5151347 28.9966181,-0.514571329 28.9966181,-0.514571329 C28.9966181,-0.514571329 26.2229785,1.72076574 22.9316259,5.99206183 C21.4844167,3.5262222 20.3404437,2.1594714 20.3404437,2.1594714 C20.3404437,2.1594714 12.1490389,12.2813432 12.1490389,27.1306772 C12.1490389,29.8746968 12.5128386,32.3422025 13.2797023,34.3571301 C13.947098,37.0322503 15.5204899,38.9811899 18.187511,39.8255659 C20.3259508,40.5025937 22.1973666,40.2433799 23.8181072,39.2345831 Z" id="Combined-Shape" fill="#000000" transform="translate(21.896051, 19.849904) rotate(-55.000000) translate(-21.896051, -19.849904) "></path>
                    </g>
                    <g id="Group" transform="translate(147.339806, 0.000000)">
                        <path d="M61.7569498,184.695919 C61.7569498,184.695919 89.3831634,142.714869 89.3831634,90.928613 C89.3831634,39.1423572 70.3844191,12.9390981 70.3844191,12.9390981 C65.6195994,4.22526462 57.673177,4.10492013 53.1294804,12.9390981 C53.1294804,12.9390981 34.1307362,39.1423572 34.1307362,90.928613 C34.1307362,142.714869 61.7569498,184.695919 61.7569498,184.695919 Z" id="Oval-11" fill="#7F7F7F" transform="translate(61.756950, 94.324432) rotate(-336.000000) translate(-61.756950, -94.324432) "></path>
                        <path d="M62.4853589,131.998716 C66.4637272,140.107963 73.1860842,140.22297 76.9042358,131.969572 C76.9042358,131.969572 86.0848769,120.415083 86.0848769,88.0134335 C86.0848769,55.6117839 75.5676543,40.9081625 75.5676543,40.9081625 C72.3208703,34.5220373 66.8795718,34.4362074 63.8042234,40.921318 C63.8042234,40.921318 53.292787,55.6117839 53.292787,88.0134335 C53.292787,120.415083 62.4853589,131.998716 62.4853589,131.998716 Z" id="Oval-11" fill="#D9D9D9" transform="translate(69.688832, 86.654326) rotate(-336.000000) translate(-69.688832, -86.654326) "></path>
                    </g>
                    <g id="Group-2" transform="translate(60.514563, 3.589179)">
                        <path d="M37.0817078,181.8887 C37.0817078,181.8887 64.7079214,139.90765 64.7079214,88.1213942 C64.7079214,36.3351385 45.7091772,10.1318793 45.7091772,10.1318793 C40.9443574,1.41804586 32.9979351,1.29770136 28.4542384,10.1318793 C28.4542384,10.1318793 9.45549423,36.3351385 9.45549423,88.1213942 C9.45549423,139.90765 37.0817078,181.8887 37.0817078,181.8887 Z" id="Oval-11" fill="#7F7F7F" transform="translate(37.081708, 92.213143) rotate(-6.000000) translate(-37.081708, -92.213143) "></path>
                        <path d="M26.3679986,125.954249 C30.3463669,134.063497 37.0687239,134.178503 40.7868756,125.925105 C40.7868756,125.925105 49.9675166,114.370616 49.9675166,81.9689667 C49.9675166,49.5673171 39.450294,34.8636956 39.450294,34.8636956 C36.2035101,28.4775705 30.7622115,28.3917406 27.6868632,34.8768512 C27.6868632,34.8768512 17.1754267,49.5673171 17.1754267,81.9689667 C17.1754267,114.370616 26.3679986,125.954249 26.3679986,125.954249 Z" id="Oval-11" fill="#D9D9D9" transform="translate(33.571472, 80.609859) scale(1, -1) rotate(-352.000000) translate(-33.571472, -80.609859) "></path>
                    </g>
                    <g id="Group-4" transform="translate(69.284790, 235.091236)" stroke="#979797">
                        <path d="M158.7411,146.565627 C158.7411,65.6196664 123.205695,0 79.3705502,0 C35.5354057,0 0,65.6196664 0,146.565627 C0,227.511588 158.7411,227.511588 158.7411,146.565627 Z" id="Oval-15" fill="#7F7F7F"></path>
                        <path d="M129.828366,159.286238 C129.828366,128.800097 113.919286,104.086196 94.2944419,104.086196 C74.6695975,104.086196 58.7605178,128.800097 58.7605178,159.286238 C58.7605178,189.772379 129.828366,189.772379 129.828366,159.286238 Z" id="Oval-15" fill="#D9D9D9"></path>
                    </g>
                    <g id="Group-3" transform="translate(76.300971, 98.702427)">
                        <path d="M72.1495327,224.344318 C111.996621,224.344318 144.299063,198.816446 144.299063,134.145572 C144.299063,69.4746975 111.996619,17.0486011 72.1495313,17.0486011 C32.3024435,17.0486011 0,69.4746975 0,134.145572 C0,198.816446 32.3024449,224.344318 72.1495327,224.344318 Z" id="Oval-1" fill="#7F7F7F"></path>
                        <path d="M95.1569579,95.1132483 C99.7584374,95.1132483 103.488673,91.2967892 103.488673,86.5889477 C103.488673,81.8811063 99.7584374,78.0646472 95.1569579,78.0646472 C90.5554785,78.0646472 86.8252427,81.8811063 86.8252427,86.5889477 C86.8252427,91.2967892 90.5554785,95.1132483 95.1569579,95.1132483 Z" id="Oval-9" fill="#000000"></path>
                        <path d="M50.4288026,95.1132483 C55.0302821,95.1132483 58.7605178,91.2967892 58.7605178,86.5889477 C58.7605178,81.8811063 55.0302821,78.0646472 50.4288026,78.0646472 C45.8273231,78.0646472 42.0970874,81.8811063 42.0970874,86.5889477 C42.0970874,91.2967892 45.8273231,95.1132483 50.4288026,95.1132483 Z" id="Oval-9" fill="#000000"></path>
                        <polygon id="Path-3" fill="#000000" points="43.9352178 6.7051942 64.7134849 16.8219469 72.218779 0 78.025167 16.4538226 99.7260047 6.5626614 88.5659118 20.7708233 114.012945 22.1274485 91.800285 27.1396811 109.352781 38.4787295 84.9412203 34.6723859 87.1282932 48.8518362 72.3596377 36.6924551 57.8167862 49.3512137 58.9522576 33.964849 34.0632829 38.9565733 54.0168278 27.6544399 26.3106796 22.5130049 56.0393863 20.8508058"></polygon>
                        <path d="M71.8881846,222.080462 C109.19967,222.080462 139.446602,200.688204 139.446602,174.299514 C139.446602,147.910824 109.19967,126.518566 71.8881846,126.518566 C34.5766991,126.518566 4.32976718,147.910824 4.32976718,174.299514 C4.32976718,200.688204 34.5766991,222.080462 71.8881846,222.080462 Z" id="Oval-7" fill="#D9D9D9"></path>
                        <path d="M50.8673139,174.972485 C50.8673139,184.388168 60.6837237,192.021086 72.7928803,192.021086 C84.9020368,192.021086 94.7184466,184.388168 94.7184466,174.972485" id="Oval-11" stroke="#404040" stroke-width="4"></path>
                    </g>
                </g>
            </g>
            <path d="M238.818364,329.675611 C222.42626,337.855375 211.27545,335.893562 206.758082,326.417499 C202.240715,316.941435 206.067427,303.539515 222.45953,295.35975 C238.851634,287.179986 241.549487,295.342993 246.066854,304.819056 C250.584221,314.29512 255.210467,321.495846 238.818364,329.675611" id="Oval-2" fill="#404040"></path>
            <g id="Group-19" transform="translate(224.000000, 239.431323)" font-size="138.857143" font-family="FontAwesome" fill="#FFFFFF" font-weight="normal">
                <text id="">
                    <tspan x="0.0306122449" y="119"></tspan>
                </text>
            </g>
            <path d="M236.707132,371.275264 C218.852409,370.317909 210.209626,363.080758 210.748942,352.55212 C211.288258,342.023482 220.805447,332.19034 238.660169,333.147696 C256.514892,334.105051 255.027461,342.583885 254.488144,353.112523 C253.948828,363.641161 254.561855,372.23262 236.707132,371.275264" id="Oval-2" fill="#404040" transform="translate(232.745517, 352.215661) rotate(-23.000000) translate(-232.745517, -352.215661) "></path>
        </g>
    </g>
</svg>