<?xml version="1.0" encoding="UTF-8" standalone="no"?>
<svg width="711px" height="970px" viewBox="0 0 711 970" version="1.1" xmlns="http://www.w3.org/2000/svg" xmlns:xlink="http://www.w3.org/1999/xlink">
    <!-- Generator: Sketch 3.7.2 (28276) - http://www.bohemiancoding.com/sketch -->
    <title>danny box white</title>
    <desc>Created with Sketch.</desc>
    <defs></defs>
    <g id="Page-1" stroke="none" stroke-width="1" fill="none" fill-rule="evenodd">
        <g id="Group-8" transform="translate(2.000000, 0.000000)">
            <g id="Group-7">
                <path d="M329.08856,935.194213 C327.787866,897.334097 340.906751,877.784836 362.374487,877.022826 C383.842224,876.260816 405.529413,894.574616 406.830108,932.434732 C408.130802,970.294848 390.651257,968.685616 369.183521,969.447626 C347.715784,970.209636 330.389255,973.054329 329.08856,935.194213" id="Oval-2" fill="#404040"></path>
                <path d="M181.388363,902.28076 C194.135359,866.682203 213.503668,853.551757 233.689038,861.019562 C253.874408,868.487368 267.233046,893.725518 254.48605,929.324075 C241.739054,964.922632 226.125369,956.774845 205.939999,949.307039 C185.754629,941.839233 168.641367,937.879317 181.388363,902.28076" id="Oval-2" fill="#404040"></path>
                <g id="Group-6">
                    <g id="Group-5" transform="translate(0.000000, 724.725084)">
                        <path d="M62.1580214,57.6063529 C81.1385014,84.2956307 109.813793,110.505387 143.198229,107.55134 C181.843028,104.131826 245.643273,82.2379031 224.238435,69.0461277" id="Path-1" stroke="#919192" stroke-width="4"></path>
                        <path d="M50.0013795,81.090551 C53.5626187,79.3765478 56.0803433,76.189071 57.7062639,71.901613 C59.6391466,68.2473238 61.2624594,63.8402551 62.5934671,58.872867 C71.4157419,25.9476889 60.3709328,-1.06615348 60.3709328,-1.06615348 C60.3709328,-1.06615348 54.6110267,3.54640009 47.7767162,12.3673016 C44.7717441,7.28715228 42.4001971,4.4721977 42.4001971,4.4721977 C42.4001971,4.4721977 25.3249955,25.4342775 25.3249955,56.1867836 C25.3249955,62.1000626 26.1461124,67.3932927 27.8805626,71.6556583 C29.3522994,76.9304706 32.6027777,80.7745334 37.9856101,82.4770086 C42.5700259,83.9269616 46.5627044,83.324596 50.0013795,81.090551 Z" id="Combined-Shape" fill="#000000" transform="translate(45.642902, 41.108530) rotate(-55.000000) translate(-45.642902, -41.108530) "></path>
                    </g>
                    <g id="Group" transform="translate(307.133753, 0.000000)">
                        <path d="M128.734008,382.49947 C128.734008,382.49947 186.321587,295.558028 186.321587,188.310313 C186.321587,81.0625972 137.866882,9.62711164 137.866882,9.62711164 C132.822935,1.06340846 124.511129,0.98510418 119.601134,9.62711164 C119.601134,9.62711164 71.1464294,81.0625972 71.1464294,188.310313 C71.1464294,295.558028 128.734008,382.49947 128.734008,382.49947 Z" id="Oval-11" fill="#7F7F7F" transform="translate(128.734008, 195.342948) rotate(-336.000000) translate(-128.734008, -195.342948) "></path>
                        <path d="M131.298059,273.39451 C139.639157,290.305299 153.722502,290.57501 161.503848,273.39451 C161.503848,273.39451 180.578946,249.616638 180.578946,182.513835 C180.578946,115.411033 155.774139,78.674898 155.774139,78.674898 C150.597472,68.9207602 141.985295,68.8067521 137.027767,78.674898 C137.027767,78.674898 112.22296,115.411033 112.22296,182.513835 C112.22296,249.616638 131.298059,273.39451 131.298059,273.39451 Z" id="Oval-11" fill="#D9D9D9" transform="translate(146.400953, 176.914254) rotate(-336.000000) translate(-146.400953, -176.914254) "></path>
                    </g>
                    <g id="Group-2" transform="translate(126.144220, 7.433078)">
                        <path d="M77.2978085,376.685808 C77.2978085,376.685808 134.885387,289.744366 134.885387,182.49665 C134.885387,75.2489349 86.4306822,3.81344941 86.4306822,3.81344941 C81.3867353,-4.75025377 73.074929,-4.82855805 68.1649347,3.81344941 C68.1649347,3.81344941 19.7102298,75.2489349 19.7102298,182.49665 C19.7102298,289.744366 77.2978085,376.685808 77.2978085,376.685808 Z" id="Oval-11" fill="#7F7F7F" transform="translate(77.297808, 190.970535) rotate(-6.000000) translate(-77.297808, -190.970535) "></path>
                        <path d="M59.9585789,264.314934 C65.1352466,274.069071 73.7474228,274.183079 78.704951,264.314934 C78.704951,264.314934 103.509758,227.578799 103.509758,160.475996 C103.509758,93.3731936 81.6164845,62.9905907 81.6164845,62.9905907 C74.8318212,49.7274943 63.4660758,49.5381014 57.0410121,63.0042282 C57.0410121,63.0042282 35.1537722,93.3731936 35.1537722,160.475996 C35.1537722,227.578799 59.9585789,264.314934 59.9585789,264.314934 Z" id="Oval-11" fill="#D9D9D9" transform="translate(69.331765, 162.323597) scale(1, -1) rotate(-352.000000) translate(-69.331765, -162.323597) "></path>
                    </g>
                    <g id="Group-4" transform="translate(144.425991, 486.866595)" stroke="#979797">
                        <path d="M330.900055,303.532828 C330.900055,135.896276 256.825555,0 165.450028,0 C74.0745005,0 0,135.896276 0,303.532828 C0,471.16938 330.900055,471.16938 330.900055,303.532828 Z" id="Oval-15" fill="#7F7F7F"></path>
                        <path d="M270.63069,329.876815 C270.63069,266.74097 237.467789,215.559256 196.559278,215.559256 C155.650766,215.559256 122.487866,266.74097 122.487866,329.876815 C122.487866,393.012659 270.63069,393.012659 270.63069,329.876815 Z" id="Oval-15" fill="#D9D9D9"></path>
                    </g>
                    <g id="Group-3" transform="translate(159.051408, 204.409639)">
                        <path d="M150.397624,464.610064 C233.459941,464.610064 300.795243,411.74264 300.795243,277.811282 C300.795243,143.879925 233.459938,35.3071195 150.397621,35.3071195 C67.3353045,35.3071195 0,143.879925 0,277.811282 C0,411.74264 67.3353075,464.610064 150.397624,464.610064 Z" id="Oval-1" fill="#7F7F7F"></path>
                        <path d="M198.357215,196.976561 C207.949122,196.976561 215.724898,189.072794 215.724898,179.323002 C215.724898,169.573209 207.949122,161.669442 198.357215,161.669442 C188.765309,161.669442 180.989533,169.573209 180.989533,179.323002 C180.989533,189.072794 188.765309,196.976561 198.357215,196.976561 Z" id="Oval-9" fill="#000000"></path>
                        <path d="M105.120183,196.976561 C114.71209,196.976561 122.487866,189.072794 122.487866,179.323002 C122.487866,169.573209 114.71209,161.669442 105.120183,161.669442 C95.5282767,161.669442 87.7525008,169.573209 87.7525008,179.323002 C87.7525008,189.072794 95.5282767,196.976561 105.120183,196.976561 Z" id="Oval-9" fill="#000000"></path>
                        <polygon id="Path-3" fill="#000000" points="91.5841327 13.8862474 134.896984 34.8377258 150.54197 0 162.645541 34.0753519 207.881515 13.5910664 184.618004 43.0157253 237.663023 45.8252535 191.360141 56.2054305 227.948787 79.688245 177.062238 71.8054265 181.62125 101.170624 150.835594 75.9889266 120.520632 102.20482 122.887553 70.3401396 71.0058212 80.6778445 112.599518 57.2714798 54.845313 46.6237287 116.815595 43.1813664"></polygon>
                        <path d="M149.852837,459.921688 C227.629623,459.921688 290.680159,415.618992 290.680159,360.96884 C290.680159,306.318688 227.629623,262.015992 149.852837,262.015992 C72.0760509,262.015992 9.0255151,306.318688 9.0255151,360.96884 C9.0255151,415.618992 72.0760509,459.921688 149.852837,459.921688 Z" id="Oval-7" fill="#D9D9D9"></path>
                        <path d="M106.034272,362.362542 C106.034272,381.862127 126.49684,397.669662 151.738699,397.669662 C176.980559,397.669662 197.443127,381.862127 197.443127,362.362542" id="Oval-11" stroke="#404040" stroke-width="4"></path>
                    </g>
                </g>
            </g>
            <g id="Group" transform="translate(418.000000, 545.000000)">
                <path d="M118.500224,230 L101.999553,230 C79.8994792,230 62,212.092727 62,190.002986 L62,145.498507 L62,98 L161,98 L161,145.498507 L161,183.501493 L161,230 L118.500224,230 Z" id="Rectangle-7" fill="#FFFFFF"></path>
                <path d="M192,184.001493 L192,145.498507 L192,98 L291,98 L291,145.498507 L291,190.002986 C291,212.097783 273.09159,230 251.000447,230 L234.499776,230 L192,230 L192,184.001493 Z" id="Rectangle-7" fill="#FFFFFF"></path>
                <path d="M124.498768,0 L92.0024635,0 C75.4325604,0 62,13.4356371 62,30.006592 L62,35.496704 L62,66 L94.5012317,66 L124.498768,66 L161,66 L161,0 L124.498768,0 Z" id="Rectangle-7" fill="#FFFFFF"></path>
                <g id="Rectangle-7" transform="translate(192.000000, 0.000000)" fill="#FFFFFF">
                    <path d="M38.003976,66 L65.496024,66 L99,66 L99,34.0025026 L99,30.9949948 C99,13.8769319 85.1226298,0 67.9920479,0 L38.003976,0 L0,0 L0,66 L38.003976,66 Z"></path>
                </g>
                <path d="M13.0349606,162.840182 C14.1591799,141.035702 33.9980129,120.671572 71.2166584,122.654226 C108.435304,124.636879 105.334714,142.196279 104.210494,164.000758 C103.086275,185.805238 104.364146,203.597881 67.1455002,201.615227 C29.9268547,199.632574 11.9107412,184.644661 13.0349606,162.840182 Z" id="Oval-2" fill="#404040" transform="translate(58.887408, 162.143386) rotate(-27.000000) translate(-58.887408, -162.143386) "></path>
            </g>
        </g>
    </g>
</svg>