<?xml version="1.0" encoding="UTF-8" standalone="no"?>
<svg width="756px" height="1015px" viewBox="0 0 756 1015" version="1.1" xmlns="http://www.w3.org/2000/svg" xmlns:xlink="http://www.w3.org/1999/xlink" xmlns:sketch="http://www.bohemiancoding.com/sketch/ns">
    <title>danny box</title>
    <description>Created with Sketch (http://www.bohemiancoding.com/sketch)</description>
    <defs></defs>
    <g id="Page-1" stroke="none" stroke-width="1" fill="none" fill-rule="evenodd" sketch:type="MSPage">
        <g id="Group-+-Rectangle-8-+-Group" sketch:type="MSLayerGroup" transform="translate(0.000000, -15.000000)">
            <g id="Group-+-Rectangle-8" transform="translate(527.000000, 586.000000)" fill="#FFFFFF" sketch:type="MSShapeGroup">
                <g id="Group">
                    <path d="M56.5002237,230 L39.9995525,230 C17.8994792,230 0,212.092727 0,190.002986 L0,145.498507 L0,145.498507 L0,98 L99,98 L99,145.498507 L99,183.501493 L99,230 L56.5002237,230 Z" id="Rectangle-7"></path>
                    <path d="M130,184.001493 L130,145.498507 L130,145.498507 L130,98 L229,98 L229,145.498507 L229,190.002986 C229,212.097783 211.09159,230 189.000447,230 L172.499776,230 L130,230 L130,184.001493 Z" id="Rectangle-7"></path>
                    <path d="M62.4987683,0 L30.0024635,0 C13.4325604,0 0,13.4356371 0,30.006592 L0,35.496704 L0,35.496704 L0,66 L32.5012317,66 L62.4987683,66 L99,66 L99,0 L62.4987683,0 Z" id="Rectangle-7"></path>
                    <g id="Rectangle-7" transform="translate(130.000000, 0.000000)">
                        <path d="M38.003976,66 L65.496024,66 L65.496024,66 L99,66 L99,34.0025026 L99,30.9949948 C99,13.8769319 85.1226298,0 67.9920479,0 L38.003976,0 L0,0 L0,66 L38.003976,66 Z"></path>
                    </g>
                </g>
            </g>
            <g id="Group" sketch:type="MSShapeGroup">
                <path d="M468,361 C498.927948,361 524,282.202121 524,185 C524,87.7978792 498.927948,9 468,9 C437.072052,9 412,87.7978792 412,185 C412,282.202121 437.072052,361 468,361 Z" id="Oval-11" fill="#7F7F7F" transform="translate(468.000000, 185.000000) rotate(16.000000) translate(-468.000000, -185.000000) "></path>
                <path d="M209.5,373 C240.70409,373 266,292.858975 266,194 C266,95.1410249 240.70409,15 209.5,15 C178.29591,15 153,95.1410249 153,194 C153,292.858975 178.29591,373 209.5,373 Z" id="Oval-11" fill="#7F7F7F" transform="translate(209.500000, 194.000000) rotate(-16.000000) translate(-209.500000, -194.000000) "></path>
                <path d="M394,1012 C425.480232,1012 451,994.539106 451,973 C451,951.460894 425.480232,934 394,934 C362.519768,934 337,951.460894 337,973 C337,994.539106 362.519768,1012 394,1012 Z" id="Oval-2" fill="#404040" transform="translate(394.000000, 973.000000) rotate(-91.000000) translate(-394.000000, -973.000000) "></path>
                <path d="M207,973 C238.480232,973 264,955.539106 264,934 C264,912.460894 238.480232,895 207,895 C175.519768,895 150,912.460894 150,934 C150,955.539106 175.519768,973 207,973 Z" id="Oval-2" fill="#404040" transform="translate(207.000000, 934.000000) rotate(-82.000000) translate(-207.000000, -934.000000) "></path>
                <ellipse id="Oval-1" fill="#7F7F7F" cx="337" cy="505.5" rx="145" ry="243.5"></ellipse>
                <circle id="Oval-9" fill="#000000" cx="295.5" cy="410.5" r="15.5"></circle>
                <circle id="Oval-9" fill="#000000" cx="383.5" cy="410.5" r="15.5"></circle>
                <path d="M70,744 C86.6571382,766.873511 111.822376,789.336057 141.120326,786.80435 C175.034736,783.873724 231.025391,765.109977 212.240652,753.80423" id="Path-1" stroke="#919192" stroke-width="4"></path>
                <path d="M24.9188858,715.103079 L54.2967486,728.837745 L64.9082929,706 L73.1177971,728.337974 L103.800059,714.909574 L88.0210877,734.198803 L124,736.040579 L92.5940856,742.845267 L117.411113,758.239341 L82.8962287,753.071788 L85.9884753,772.322037 L65.1074494,755.814266 L44.5456819,773 L46.1510961,752.111224 L10.9612084,758.888069 L39.1730175,743.544112 L4.4962514e-15,736.564017 L42.0326615,734.307389 L24.9188858,715.103079 Z" id="Path-3" fill="#000000"></path>
                <ellipse id="Oval-1" fill="#919192" cx="336.5" cy="757" rx="196.5" ry="228"></ellipse>
                <path d="M336.5,680 C410.782303,680 471,638.138627 471,586.5 C471,534.861373 410.782303,493 336.5,493 C262.217697,493 202,534.861373 202,586.5 C202,638.138627 262.217697,680 336.5,680 Z" id="Oval-7" fill="#D9D9D9"></path>
                <path d="M398,907 C432.241656,907 460,879.241656 460,845 C460,810.758344 432.241656,783 398,783 C363.758344,783 336,810.758344 336,845 C336,879.241656 363.758344,907 398,907 Z" id="Oval-6" fill="#D9D9D9"></path>
                <path d="M298,571 C298,588.120828 315.908609,602 338,602 C360.091391,602 378,588.120828 378,571" id="Oval-11" stroke="#404040" stroke-width="4"></path>
                <path d="M519,783 C550.480232,783 576,765.539106 576,744 C576,722.460894 550.480232,705 519,705 C487.519768,705 462,722.460894 462,744 C462,765.539106 487.519768,783 519,783 Z" id="Oval-2" fill="#404040" transform="translate(519.000000, 744.000000) rotate(-40.000000) translate(-519.000000, -744.000000) "></path>
                <path d="M207.5,340 C227.658394,340 244,276.200581 244,197.5 C244,118.799419 227.658394,55 207.5,55 C187.341606,55 171,118.799419 171,197.5 C171,276.200581 187.341606,340 207.5,340 Z" id="Oval-11" fill="#D9D9D9" transform="translate(207.000000, 197.500000) rotate(-16.000000) translate(-207.000000, -197.500000) "></path>
                <path d="M469,332 C488.882252,332 505,267.752866 505,188.5 C505,109.247134 488.882252,45 469,45 C449.117748,45 433,109.247134 433,188.5 C433,267.752866 449.117748,332 469,332 Z" id="Oval-11" fill="#D9D9D9" transform="translate(469.000000, 187.500000) rotate(16.000000) translate(-469.000000, -187.500000) "></path>
                <path d="M261.306711,241.586251 L319.550944,259.820251 L337.816082,229 L353.09077,259.820251 L417.515055,241.910372 L382.492648,266.927983 L455,269.569719 L389.462989,280.053481 L443.354315,300.134688 L370.173638,291.271536 L379.514843,320.184344 L339.469365,295.290072 L295.238521,322 L305.850509,293.127348 L233.637145,300.868982 L290.158549,280.093637 L217,272.32332 L294.622096,268.181445 L261.306711,241.586251 Z" id="Path-2" fill="#000000"></path>
            </g>
        </g>
    </g>
</svg>