<?xml version="1.0" encoding="UTF-8" standalone="no"?>
<svg width="586px" height="793px" viewBox="0 0 586 793" version="1.1" xmlns="http://www.w3.org/2000/svg" xmlns:xlink="http://www.w3.org/1999/xlink">
    <!-- Generator: Sketch 3.8.3 (29802) - http://www.bohemiancoding.com/sketch -->
    <title>Slice 1</title>
    <desc>Created with Sketch.</desc>
    <defs>
        <linearGradient x1="50%" y1="0%" x2="50%" y2="100%" id="linearGradient-1">
            <stop stop-color="#FFFFFF" stop-opacity="0.5" offset="0%"></stop>
            <stop stop-color="#000000" stop-opacity="0.5" offset="100%"></stop>
        </linearGradient>
        <path d="M270.314654,763.73077 C269.250211,732.893095 279.986251,716.969906 297.554701,716.349237 C315.123152,715.728568 332.871195,730.645454 333.935638,761.483128 C335.000081,792.320803 320.695428,791.010058 303.126978,791.630728 C285.558528,792.251397 271.379098,794.568445 270.314654,763.73077" id="path-2"></path>
        <path d="M10.6673593,132.635954 C11.5873814,114.875854 27.8227936,98.2889421 58.2812411,99.9038451 C88.7396887,101.518748 86.2022732,115.821163 85.2822511,133.581263 C84.362229,151.341363 85.4079941,165.833758 54.9495466,164.218855 C24.491099,162.603952 9.74733715,150.396055 10.6673593,132.635954 Z" id="path-3"></path>
    </defs>
    <g id="Page-1" stroke="none" stroke-width="1" fill="none" fill-rule="evenodd">
        <g id="Group-9" transform="translate(-1003.000000, -87.000000)">
            <g id="Group-8" transform="translate(1004.389506, 87.959677)">
                <g id="Group-7">
                    <g id="Oval-2">
                        <use fill="#404040" xlink:href="#path-2"></use>
                        <use fill="url(#linearGradient-1)" xlink:href="#path-2"></use>
                        <use fill="#000000" xlink:href="#path-2"></use>
                    </g>
                    <path d="M192.242996,703.314321 C208.762003,709.396969 219.694249,729.953849 209.26255,758.949448 C198.830851,787.945047 186.053153,781.308543 169.534147,775.225895 C153.015141,769.143246 139.010241,765.917831 149.44194,736.922232 C159.873638,707.926633 175.72399,697.231673 192.242996,703.314321 Z" id="Oval-2" fill="#000000"></path>
                    <g id="Group-6">
                        <g id="Group-5" transform="translate(0.000000, 592.300270)">
                            <path d="M51.8679671,46.9213035 C67.400933,68.6601508 90.8677964,90.0084202 118.18846,87.6023012 C149.814022,84.8170514 202.025928,66.9840985 184.508951,56.2391846" id="Path-1" stroke="#919192" stroke-width="4"></path>
                            <path d="M42.1283033,65.9317515 C44.8587847,64.5465955 46.8198313,62.0830514 48.1182136,58.8027386 C49.7507095,55.7825641 51.1154175,52.1120464 52.2277954,47.9605956 C59.4136806,21.142507 50.3518448,-0.878296996 50.3518448,-0.878296996 C50.3518448,-0.878296996 45.6509407,2.86886536 40.073589,10.0390744 C37.6213824,5.9167767 35.6883103,3.63307075 35.6883103,3.63307075 C35.6883103,3.63307075 21.7145581,20.7070229 21.7145581,45.7554351 C21.7145581,50.7154201 22.427176,55.1398178 23.9348283,58.6631989 C25.1848479,62.7974699 27.8236325,65.8115251 32.1186385,67.168956 C35.9513015,68.3802639 39.276744,67.846074 42.1283033,65.9317515 Z" id="Combined-Shape" fill="#000000" transform="translate(38.356524, 33.468635) rotate(-55.000000) translate(-38.356524, -33.468635) "></path>
                        </g>
                        <g id="Group" transform="translate(252.347602, 0.000000)">
                            <path d="M105.835632,313.654905 C105.835632,313.654905 152.963307,242.839698 152.963307,155.484704 C152.963307,68.1297103 114.894426,12.8597806 114.894426,12.8597806 C109.891392,4.27436123 101.622275,4.1926751 96.7768379,12.8597806 C96.7768379,12.8597806 58.7079567,68.1297103 58.7079567,155.484704 C58.7079567,242.839698 105.835632,313.654905 105.835632,313.654905 Z" id="Oval-11" fill="#7F7F7F" transform="translate(105.835632, 160.022476) rotate(-336.000000) translate(-105.835632, -160.022476) "></path>
                            <path d="M106.417763,224.374883 C113.266324,238.203477 124.82705,238.432981 131.218594,224.374883 C131.218594,224.374883 146.788262,205.106075 146.788262,150.44976 C146.788262,95.7934447 128.044449,69.2086166 128.044449,69.2086166 C122.948921,59.4205487 114.432479,59.2922023 109.591908,69.2086166 C109.591908,69.2086166 90.8480959,95.7934447 90.8480959,150.44976 C90.8480959,205.106075 106.417763,224.374883 106.417763,224.374883 Z" id="Oval-11" fill="#D9D9D9" transform="translate(118.818179, 148.325964) rotate(-336.000000) translate(-118.818179, -148.325964) "></path>
                        </g>
                        <g id="Group-2" transform="translate(104.232051, 3.054362)">
                            <path d="M63.010702,311.829618 C63.010702,311.829618 110.138377,241.014411 110.138377,153.659417 C110.138377,66.3044233 72.0694961,11.0344936 72.0694961,11.0344936 C67.0664623,2.44907425 58.7973451,2.36738812 53.9519079,11.0344936 C53.9519079,11.0344936 15.8830267,66.3044233 15.8830267,153.659417 C15.8830267,241.014411 63.010702,311.829618 63.010702,311.829618 Z" id="Oval-11" fill="#7F7F7F" transform="translate(63.010702, 158.197189) rotate(-6.000000) translate(-63.010702, -158.197189) "></path>
                            <path d="M47.462536,216.23778 C52.5580645,226.025848 61.0745063,226.154194 65.9150769,216.23778 C65.9150769,216.23778 84.6588893,189.652952 84.6588893,134.996637 C84.6588893,80.3403218 68.7180397,60.177411 68.7180397,60.177411 C62.0744776,46.8426161 50.8764053,46.621368 44.6595732,60.177411 C44.6595732,60.177411 28.7187236,80.3403218 28.7187236,134.996637 C28.7187236,189.652952 47.462536,216.23778 47.462536,216.23778 Z" id="Oval-11" fill="#D9D9D9" transform="translate(56.688806, 136.860108) scale(1, -1) rotate(-352.000000) translate(-56.688806, -136.860108) "></path>
                        </g>
                        <g id="Group-4" transform="translate(119.193218, 398.560694)" stroke="#979797">
                            <path d="M270.797119,247.232384 C270.797119,110.689709 210.177119,0 135.398559,0 C60.6199999,0 0,110.689709 0,247.232384 C0,383.77506 270.797119,383.77506 270.797119,247.232384 Z" id="Oval-15" fill="#7F7F7F"></path>
                            <path d="M221.474762,268.689986 C221.474762,217.264823 194.335395,175.576491 160.85729,175.576491 C127.379184,175.576491 100.239817,217.264823 100.239817,268.689986 C100.239817,320.11515 221.474762,320.11515 221.474762,268.689986 Z" id="Oval-15" fill="#D9D9D9"></path>
                        </g>
                        <g id="Group-3" transform="translate(131.162151, 168.494948)">
                            <path d="M123.080195,378.432391 C191.055512,378.432391 246.160385,335.371021 246.160385,226.28177 C246.160385,117.192519 191.055509,28.7582183 123.080193,28.7582183 C55.1048758,28.7582183 0,117.192519 0,226.28177 C0,335.371021 55.1048783,378.432391 123.080195,378.432391 Z" id="Oval-1" fill="#7F7F7F"></path>
                            <path d="M162.32866,160.440586 C170.178343,160.440586 176.541768,154.00284 176.541768,146.061477 C176.541768,138.120114 170.178343,131.682368 162.32866,131.682368 C154.478976,131.682368 148.115551,138.120114 148.115551,146.061477 C148.115551,154.00284 154.478976,160.440586 162.32866,160.440586 Z" id="Oval-9" fill="#000000"></path>
                            <path d="M86.026709,160.440586 C93.8763925,160.440586 100.239817,154.00284 100.239817,146.061477 C100.239817,138.120114 93.8763925,131.682368 86.026709,131.682368 C78.1770256,131.682368 71.8136006,138.120114 71.8136006,146.061477 C71.8136006,154.00284 78.1770256,160.440586 86.026709,160.440586 Z" id="Oval-9" fill="#000000"></path>
                            <polygon id="Path-3" fill="#000000" points="74.9492751 11.3105725 110.395009 28.3758895 123.198323 0 133.103465 27.7549237 170.123016 11.0701428 151.084966 35.037002 194.495168 37.3254081 156.602497 45.7802297 186.545375 64.9073608 144.901589 58.486678 148.632526 82.4051053 123.438614 61.8942063 98.6299017 83.247474 100.566907 57.2931782 58.1086993 65.7134056 92.1475365 46.648544 44.8835004 37.975779 95.5978277 35.1719194"></polygon>
                            <path d="M122.63436,374.613633 C186.284182,374.613633 237.882552,338.528372 237.882552,294.014942 C237.882552,249.501512 186.284182,213.416252 122.63436,213.416252 C58.9845382,213.416252 7.38616826,249.501512 7.38616826,294.014942 C7.38616826,338.528372 58.9845382,374.613633 122.63436,374.613633 Z" id="Oval-7" fill="#D9D9D9"></path>
                            <path d="M86.7747674,295.150135 C86.7747674,311.032861 103.520623,323.908353 124.177684,323.908353 C144.834746,323.908353 161.580601,311.032861 161.580601,295.150135" id="Oval-11" stroke="#404040" stroke-width="4"></path>
                        </g>
                    </g>
                </g>
                <g id="Group" transform="translate(343.076690, 445.911290)">
                    <path d="M94.9303734,187.214334 C93.8817958,187.296732 92.8218531,187.33871 91.7521035,187.33871 L90.7433556,187.33871 C68.6438277,187.33871 50.7386478,169.42576 50.7386478,147.329017 L50.7386478,124.71937 C50.7386478,123.031009 50.8431468,121.367139 51.046027,119.733871 L50.7386478,119.733871 L50.7386478,79.8225806 L131.756811,79.8225806 L131.756811,119.733871 L131.449352,119.733871 C131.652286,121.367198 131.756811,123.031072 131.756811,124.71937 L131.756811,145.749186 L131.756811,187.33871 L94.9303734,187.33871 L94.9303734,187.214334 Z" id="Rectangle-7" fill="#FFFFFF"></path>
                    <path d="M157.126135,146.156444 L157.126135,124.71937 C157.126135,123.031009 157.230634,121.367139 157.433514,119.733871 L157.126135,119.733871 L157.126135,79.8225806 L238.144299,79.8225806 L238.144299,119.733871 L237.836839,119.733871 C238.039774,121.367198 238.144299,123.031072 238.144299,124.71937 L238.144299,147.329017 C238.144299,169.432762 220.233581,187.33871 198.139591,187.33871 L197.130843,187.33871 C196.061073,187.33871 195.001131,187.296736 193.952573,187.214344 L193.952573,187.33871 L157.126135,187.33871 L157.126135,146.156444 Z" id="Rectangle-7" fill="#FFFFFF"></path>
                    <path d="M100.725626,0 L77.6113106,0 C62.7699488,0 50.7386478,12.0308887 50.7386478,26.8790323 C50.7386478,27.4260128 50.7549783,27.9691774 50.7871784,28.5080645 L50.7386478,28.5080645 L50.7386478,53.7580645 L78.4963717,53.7580645 L100.725626,53.7580645 L131.756811,53.7580645 L131.756811,0 L100.725626,0 Z" id="Rectangle-7" fill="#FFFFFF"></path>
                    <g id="Rectangle-7" transform="translate(157.126135, 0.000000)" fill="#FFFFFF">
                        <path d="M31.852116,53.7580645 L52.8486913,53.7580645 L81.0181635,53.7580645 L81.0181635,26.8790323 C81.0181635,12.0341527 68.9771458,0 54.1403694,0 L31.852116,0 L0,0 L0,53.7580645 L31.852116,53.7580645 Z"></path>
                    </g>
                    <g id="Oval-2" transform="translate(48.191410, 132.068403) rotate(-27.000000) translate(-48.191410, -132.068403) ">
                        <use fill="#404040" xlink:href="#path-3"></use>
                        <use fill="#000000" xlink:href="#path-3"></use>
                    </g>
                </g>
            </g>
        </g>
    </g>
</svg>