<?xml version="1.0" encoding="UTF-8" standalone="no"?>
<svg width="1082px" height="261px" viewBox="0 0 1082 261" version="1.1" xmlns="http://www.w3.org/2000/svg" xmlns:xlink="http://www.w3.org/1999/xlink" xmlns:sketch="http://www.bohemiancoding.com/sketch/ns">
    <title>logo biblebox 3</title>
    <description>Created with Sketch (http://www.bohemiancoding.com/sketch)</description>
    <defs></defs>
    <g id="Page-1" stroke="none" stroke-width="1" fill="none" fill-rule="evenodd" sketch:type="MSPage">
        <g id="Group-+-Rectangle-8-+-biblebox-+-4kids" sketch:type="MSLayerGroup" transform="translate(-20.000000, -52.000000)" fill="#FFFFFF">
            <g id="Group-+-Rectangle-8" transform="translate(890.000000, 100.000000)" sketch:type="MSShapeGroup">
                <g id="Group">
                    <rect id="Rectangle-7" x="0" y="96" width="91" height="117" rx="40"></rect>
                    <rect id="Rectangle-8" x="0" y="90" width="91" height="46"></rect>
                    <rect id="Rectangle-8" x="50" y="164" width="42" height="49"></rect>
                    <rect id="Rectangle-7" x="121" y="96" width="91" height="117" rx="40"></rect>
                    <rect id="Rectangle-8" x="121" y="90" width="91" height="46"></rect>
                    <rect id="Rectangle-8" x="121" y="165" width="42" height="48"></rect>
                    <rect id="Rectangle-7" x="0" y="0" width="90" height="61" rx="40"></rect>
                    <rect id="Rectangle-8" x="0" y="32" width="32" height="28"></rect>
                    <rect id="Rectangle-7" x="124" y="0" width="88" height="61" rx="40"></rect>
                    <rect id="Rectangle-8" x="179" y="30" width="33" height="30"></rect>
                    <rect id="Rectangle-8" x="121" y="0" width="38" height="61"></rect>
                </g>
                <rect id="Rectangle-8" x="53" y="0" width="39" height="61"></rect>
            </g>
            <g id="biblebox-+-4kids" font-weight="normal" font-family="Arial Rounded MT Bold" sketch:type="MSTextLayer">
                <text id="biblebox" font-size="242.865672" letter-spacing="-15">
                    <tspan x="0" y="230">biblebox</tspan>
                </text>
                <text id="4kids" font-size="100.714286">
                    <tspan x="622" y="310">4kids</tspan>
                </text>
            </g>
        </g>
    </g>
</svg>