<?xml version="1.0" encoding="UTF-8" standalone="no"?>
<svg
   xmlns:dc="http://purl.org/dc/elements/1.1/"
   xmlns:cc="http://creativecommons.org/ns#"
   xmlns:rdf="http://www.w3.org/1999/02/22-rdf-syntax-ns#"
   xmlns:svg="http://www.w3.org/2000/svg"
   xmlns="http://www.w3.org/2000/svg"
   viewBox="0 0 1508 348"
   height="348"
   width="1508"
   xml:space="preserve"
   version="1.1"
   id="svg2"><metadata
     id="metadata8"><rdf:RDF><cc:Work
         rdf:about=""><dc:format>image/svg+xml</dc:format><dc:type
           rdf:resource="http://purl.org/dc/dcmitype/StillImage" /></cc:Work></rdf:RDF></metadata><defs
     id="defs6"><clipPath
       id="clipPath28"
       clipPathUnits="userSpaceOnUse"><path
         style="clip-rule:evenodd"
         id="path30"
         d="M 8890.06,1650 C 8796.14,1650 8720,1573.86 8720,1480.02 l 0,-1310.04 C 8720,76.1016 8796.02,0 8890.06,0 l 889.88,0 C 9873.86,0 9950,76.1367 9950,169.98 l 0,1310.04 c 0,93.88 -76.01,169.98 -170.06,169.98 l -889.88,0 z" /></clipPath><clipPath
       id="clipPath34"
       clipPathUnits="userSpaceOnUse"><path
         id="path36"
         d="m 0,0 11310,0 0,2610 L 0,2610 0,0 Z" /></clipPath><clipPath
       id="clipPath44"
       clipPathUnits="userSpaceOnUse"><path
         id="path46"
         d="m 8720,1650 0,-250 220,0 0,250 -220,0 z" /></clipPath><clipPath
       id="clipPath54"
       clipPathUnits="userSpaceOnUse"><path
         id="path56"
         d="m 9730,1650 0,-250 220,0 0,250 -220,0 z" /></clipPath><clipPath
       id="clipPath64"
       clipPathUnits="userSpaceOnUse"><path
         id="path66"
         d="m 9730,0 220,0 0,250 -220,0 0,-250 z" /></clipPath><clipPath
       id="clipPath74"
       clipPathUnits="userSpaceOnUse"><path
         style="clip-rule:evenodd"
         id="path76"
         d="m 10250.1,1650 c -94,0 -170.1,-76.14 -170.1,-169.98 l 0,-1310.04 C 10080,76.1016 10156,0 10250.1,0 l 889.8,0 c 94,0 170.1,76.1367 170.1,169.98 l 0,1310.04 c 0,93.88 -76,169.98 -170.1,169.98 l -889.8,0 z" /></clipPath><clipPath
       id="clipPath80"
       clipPathUnits="userSpaceOnUse"><path
         id="path82"
         d="m 0,0 11310,0 0,2610 L 0,2610 0,0 Z" /></clipPath><clipPath
       id="clipPath90"
       clipPathUnits="userSpaceOnUse"><path
         id="path92"
         d="m 11090,1400 220,0 0,250 -220,0 0,-250 z" /></clipPath><clipPath
       id="clipPath100"
       clipPathUnits="userSpaceOnUse"><path
         id="path102"
         d="m 10080,1650 0,-250 220,0 0,250 -220,0 z" /></clipPath><clipPath
       id="clipPath110"
       clipPathUnits="userSpaceOnUse"><path
         id="path112"
         d="m 10080,0 220,0 0,250 -220,0 0,-250 z" /></clipPath><clipPath
       id="clipPath120"
       clipPathUnits="userSpaceOnUse"><path
         style="clip-rule:evenodd"
         id="path122"
         d="M 8890.06,2600 C 8796.14,2600 8720,2523.8 8720,2429.95 l 0,-469.9 c 0,-93.92 76.02,-170.05 170.06,-170.05 l 889.88,0 c 93.92,0 170.06,76.2 170.06,170.05 l 0,469.9 c 0,93.92 -76.01,170.05 -170.06,170.05 l -889.88,0 z" /></clipPath><clipPath
       id="clipPath126"
       clipPathUnits="userSpaceOnUse"><path
         id="path128"
         d="m 0,0 11310,0 0,2610 L 0,2610 0,0 Z" /></clipPath><clipPath
       id="clipPath136"
       clipPathUnits="userSpaceOnUse"><path
         id="path138"
         d="m 8720,1912.73 0,-122.73 220,0 0,122.73 -220,0 z" /></clipPath><clipPath
       id="clipPath146"
       clipPathUnits="userSpaceOnUse"><path
         id="path148"
         d="m 9730,1912.73 0,-122.73 220,0 0,122.73 -220,0 z" /></clipPath><clipPath
       id="clipPath156"
       clipPathUnits="userSpaceOnUse"><path
         id="path158"
         d="m 9730,2600 0,-122.73 220,0 0,122.73 -220,0 z" /></clipPath><clipPath
       id="clipPath166"
       clipPathUnits="userSpaceOnUse"><path
         style="clip-rule:evenodd"
         id="path168"
         d="m 10250.1,2600 c -94,0 -170.1,-76.2 -170.1,-170.05 l 0,-469.9 c 0,-93.92 76,-170.05 170.1,-170.05 l 889.8,0 c 94,0 170.1,76.2 170.1,170.05 l 0,469.9 c 0,93.92 -76,170.05 -170.1,170.05 l -889.8,0 z" /></clipPath><clipPath
       id="clipPath172"
       clipPathUnits="userSpaceOnUse"><path
         id="path174"
         d="m 0,0 11310,0 0,2610 L 0,2610 0,0 Z" /></clipPath><clipPath
       id="clipPath182"
       clipPathUnits="userSpaceOnUse"><path
         id="path184"
         d="m 11090,1790 220,0 0,122.727 -220,0 0,-122.727 z" /></clipPath><clipPath
       id="clipPath192"
       clipPathUnits="userSpaceOnUse"><path
         id="path194"
         d="m 10080,1912.73 0,-122.73 220,0 0,122.73 -220,0 z" /></clipPath><clipPath
       id="clipPath202"
       clipPathUnits="userSpaceOnUse"><path
         id="path204"
         d="m 10080,2600 0,-122.73 220,0 0,122.73 -220,0 z" /></clipPath></defs><g
     transform="matrix(1.3333333,0,0,-1.3333333,0,348)"
     id="g10"><g
       transform="scale(0.1)"
       id="g12"><g
         transform="scale(10)"
         id="g14"><text
           id="text16"
           style="font-variant:normal;font-weight:normal;font-size:240px;font-family:ArialRoundedMTBold;-inkscape-font-specification:ArialRoundedMTBold;writing-mode:lr-tb;fill:#ffffff;fill-opacity:1;fill-rule:nonzero;stroke:none"
           transform="matrix(1,0,0,-1,-15,85)"><tspan
             id="tspan18"
             y="0"
             x="0 135 185.03999 316.875 366.91501 491.367 626.367 750.35101">biblebox</tspan></text>
<text
           id="text20"
           style="font-variant:normal;font-weight:normal;font-size:100px;font-family:ArialRoundedMTBold;-inkscape-font-specification:ArialRoundedMTBold;writing-mode:lr-tb;fill:#ffffff;fill-opacity:1;fill-rule:nonzero;stroke:none"
           transform="matrix(1,0,0,-1,594.999,3)"><tspan
             id="tspan22"
             y="0"
             x="0 59.400002 116.7 143.8 206.3">4kids</tspan></text>
</g><g
         id="g24"><g
           clip-path="url(#clipPath28)"
           id="g26"><g
             clip-path="url(#clipPath34)"
             id="g32"><path
               id="path38"
               style="fill:#ffffff;fill-opacity:1;fill-rule:evenodd;stroke:none"
               d="m 8670,0 1330,0 0,1700 -1330,0 0,-1700 z" /></g></g></g><g
         id="g40"><g
           clip-path="url(#clipPath44)"
           id="g42"><path
             id="path48"
             style="fill:#ffffff;fill-opacity:1;fill-rule:evenodd;stroke:none"
             d="m 8670,1350 320,0 0,350 -320,0 0,-350 z" /></g></g><g
         id="g50"><g
           clip-path="url(#clipPath54)"
           id="g52"><path
             id="path58"
             style="fill:#ffffff;fill-opacity:1;fill-rule:evenodd;stroke:none"
             d="m 9680,1350 320,0 0,350 -320,0 0,-350 z" /></g></g><g
         id="g60"><g
           clip-path="url(#clipPath64)"
           id="g62"><path
             id="path68"
             style="fill:#ffffff;fill-opacity:1;fill-rule:evenodd;stroke:none"
             d="m 9680,0 320,0 0,300 -320,0 0,-300 z" /></g></g><g
         id="g70"><g
           clip-path="url(#clipPath74)"
           id="g72"><g
             clip-path="url(#clipPath80)"
             id="g78"><path
               id="path84"
               style="fill:#ffffff;fill-opacity:1;fill-rule:evenodd;stroke:none"
               d="m 10030,0 1330,0 0,1700 -1330,0 0,-1700 z" /></g></g></g><g
         id="g86"><g
           clip-path="url(#clipPath90)"
           id="g88"><path
             id="path94"
             style="fill:#ffffff;fill-opacity:1;fill-rule:evenodd;stroke:none"
             d="m 11040,1350 320,0 0,350 -320,0 0,-350 z" /></g></g><g
         id="g96"><g
           clip-path="url(#clipPath100)"
           id="g98"><path
             id="path104"
             style="fill:#ffffff;fill-opacity:1;fill-rule:evenodd;stroke:none"
             d="m 10030,1350 320,0 0,350 -320,0 0,-350 z" /></g></g><g
         id="g106"><g
           clip-path="url(#clipPath110)"
           id="g108"><path
             id="path114"
             style="fill:#ffffff;fill-opacity:1;fill-rule:evenodd;stroke:none"
             d="m 10030,0 320,0 0,300 -320,0 0,-300 z" /></g></g><g
         id="g116"><g
           clip-path="url(#clipPath120)"
           id="g118"><g
             clip-path="url(#clipPath126)"
             id="g124"><path
               id="path130"
               style="fill:#ffffff;fill-opacity:1;fill-rule:evenodd;stroke:none"
               d="m 8670,1740 1330,0 0,910 -1330,0 0,-910 z" /></g></g></g><g
         id="g132"><g
           clip-path="url(#clipPath136)"
           id="g134"><path
             id="path140"
             style="fill:#ffffff;fill-opacity:1;fill-rule:evenodd;stroke:none"
             d="m 8670,1740 320,0 0,222.727 -320,0 0,-222.727 z" /></g></g><g
         id="g142"><g
           clip-path="url(#clipPath146)"
           id="g144"><path
             id="path150"
             style="fill:#ffffff;fill-opacity:1;fill-rule:evenodd;stroke:none"
             d="m 9680,1740 320,0 0,222.727 -320,0 0,-222.727 z" /></g></g><g
         id="g152"><g
           clip-path="url(#clipPath156)"
           id="g154"><path
             id="path160"
             style="fill:#ffffff;fill-opacity:1;fill-rule:evenodd;stroke:none"
             d="m 9680,2427.27 320,0 0,222.727 -320,0 0,-222.727 z" /></g></g><g
         id="g162"><g
           clip-path="url(#clipPath166)"
           id="g164"><g
             clip-path="url(#clipPath172)"
             id="g170"><path
               id="path176"
               style="fill:#ffffff;fill-opacity:1;fill-rule:evenodd;stroke:none"
               d="m 10030,1740 1330,0 0,910 -1330,0 0,-910 z" /></g></g></g><g
         id="g178"><g
           clip-path="url(#clipPath182)"
           id="g180"><path
             id="path186"
             style="fill:#ffffff;fill-opacity:1;fill-rule:evenodd;stroke:none"
             d="m 11040,1740 320,0 0,222.727 -320,0 0,-222.727 z" /></g></g><g
         id="g188"><g
           clip-path="url(#clipPath192)"
           id="g190"><path
             id="path196"
             style="fill:#ffffff;fill-opacity:1;fill-rule:evenodd;stroke:none"
             d="m 10030,1740 320,0 0,222.727 -320,0 0,-222.727 z" /></g></g><g
         id="g198"><g
           clip-path="url(#clipPath202)"
           id="g200"><path
             id="path206"
             style="fill:#ffffff;fill-opacity:1;fill-rule:evenodd;stroke:none"
             d="m 10030,2427.27 320,0 0,222.727 -320,0 0,-222.727 z" /></g></g></g></g></svg>